<svg xmlns="http://www.w3.org/2000/svg" viewBox="0 0 64 64" role="img" aria-hidden="true">
  <defs>
    <linearGradient id="vm-bg" x1="6" y1="6" x2="58" y2="58" gradientUnits="userSpaceOnUse">
      <stop offset="0" stop-color="#3f7fe3"/>
      <stop offset="1" stop-color="#1f4d9f"/>
    </linearGradient>
    <linearGradient id="vm-marker" x1="24" y1="16" x2="42" y2="44" gradientUnits="userSpaceOnUse">
      <stop offset="0" stop-color="#ffbf57"/>
      <stop offset="1" stop-color="#f57a00"/>
    </linearGradient>
  </defs>

  <rect x="3" y="3" width="58" height="58" rx="13" fill="url(#vm-bg)"/>

  <path
    d="M32 15.5c-6.1 0-11 4.9-11 11 0 8.3 11 21 11 21s11-12.7 11-21c0-6.1-4.9-11-11-11Zm0 16.7a5.2 5.2 0 1 1 0-10.4 5.2 5.2 0 0 1 0 10.4Z"
    fill="url(#vm-marker)"
  />
  <circle cx="32" cy="27" r="3.2" fill="#fff5dc"/>

  <rect x="24.2" y="50.2" width="15.6" height="4.6" rx="2.3" fill="#ffffff" opacity="0.95"/>
</svg>
