<svg xmlns="http://www.w3.org/2000/svg" viewBox="0 0 160 160" role="img" aria-hidden="true">
  <defs>
    <radialGradient id="ocean" cx="34%" cy="28%" r="76%">
      <stop offset="0" stop-color="#ffffff" stop-opacity="0.22"/>
      <stop offset="0.22" stop-color="#54c3ce" stop-opacity="0.18"/>
      <stop offset="0.72" stop-color="#1d8f9e" stop-opacity="0.10"/>
      <stop offset="1" stop-color="#0e3348" stop-opacity="0.04"/>
    </radialGradient>
    <clipPath id="sphere">
      <circle cx="80" cy="80" r="58"/>
    </clipPath>
  </defs>

  <circle cx="80" cy="80" r="58" fill="url(#ocean)" stroke="#1d8f9e" stroke-opacity="0.30" stroke-width="1.5"/>

  <g clip-path="url(#sphere)">
    <ellipse cx="80" cy="80" rx="58" ry="22" fill="none" stroke="#1d8f9e" stroke-opacity="0.18" stroke-width="1.2"/>
    <ellipse cx="80" cy="80" rx="58" ry="38" fill="none" stroke="#1d8f9e" stroke-opacity="0.15" stroke-width="1.2"/>
    <ellipse cx="80" cy="80" rx="58" ry="50" fill="none" stroke="#1d8f9e" stroke-opacity="0.12" stroke-width="1.1"/>

    <ellipse cx="80" cy="80" rx="18" ry="58" fill="none" stroke="#1d8f9e" stroke-opacity="0.16" stroke-width="1.1"/>
    <ellipse cx="80" cy="80" rx="34" ry="58" fill="none" stroke="#1d8f9e" stroke-opacity="0.14" stroke-width="1.1"/>
    <ellipse cx="80" cy="80" rx="48" ry="58" fill="none" stroke="#1d8f9e" stroke-opacity="0.10" stroke-width="1"/>

    <path d="M44 60c4-8 12-13 22-14 5-1 10 0 13 3 3 4 0 8-3 11-4 4-3 9 2 11 8 3 12 9 11 16-2 9-10 14-18 14-6 0-10-3-13-7-2-3-5-4-8-4-6 0-11-4-11-11 0-5 3-9 8-12 4-3 5-5 3-7-4-3-7-7-6-10z"
          fill="#f4d7a3" fill-opacity="0.26" stroke="#f09a55" stroke-opacity="0.22" stroke-width="1"/>
    <path d="M98 56c5-5 12-8 20-8 6 1 11 4 13 8 2 4 1 9-3 12-4 3-5 6-4 10 2 5 0 10-5 13-6 3-13 3-19 0-4-2-6-5-6-9 0-3 1-5 3-7 2-3 2-6-1-8-4-4-3-8 2-11z"
          fill="#f4d7a3" fill-opacity="0.22" stroke="#f09a55" stroke-opacity="0.20" stroke-width="1"/>
    <path d="M104 98c4-3 10-4 15-3 6 2 9 6 8 11-1 5-5 9-10 10-5 1-9-1-12-5-3-4-3-9-1-13z"
          fill="#f4d7a3" fill-opacity="0.22" stroke="#f09a55" stroke-opacity="0.18" stroke-width="1"/>
  </g>

  <circle cx="80" cy="80" r="58" fill="none" stroke="#ffffff" stroke-opacity="0.09" stroke-width="0.8"/>
</svg>
